<?xml version="1.0" standalone="no"?>
<svg
  width="600"
  height="600"
  viewBox="0 0 600 600"
  xmlns="http://www.w3.org/2000/svg"
>
  <g transform="translate(300,300)">
    <path d="M153.4,-176.5C199.7,-144,238.7,-96.5,250.9,-42.1C263.1,12.4,248.5,73.7,216.9,122.2C185.3,170.8,136.8,206.6,85.1,219.1C33.4,231.5,-21.4,220.5,-71.9,200.8C-122.4,181,-168.6,152.5,-190.2,111.5C-211.8,70.6,-208.8,17.1,-201.3,-37.2C-193.8,-91.6,-181.7,-146.9,-147.4,-181.5C-113.1,-216.2,-56.6,-230.1,-1.5,-228.3C53.6,-226.5,107.1,-209,153.4,-176.5Z" fill="#FFB4BC" />
  </g>
</svg>
  