<svg xmlns="http://www.w3.org/2000/svg" viewBox="0 0 168.47 182.56">
  <defs>
    <style>
      .cls-2{stroke-miterlimit:10;stroke-width:.5px;fill:none;stroke:#000}
    </style>
  </defs>
  <g id="Layer_2" data-name="Layer 2">
    <g id="Objects">
      <path d="M62.76.58C80.12 9.45 100 2.41 102.43.35c5.37 6.59 39.81 10.56 49.08 29.9 8.74 14 16.69 56.16 16.69 56.16-13.2 13.24-31.26 10.33-31.26 10.33s-3.5-10.8-4.83-15.09c-1.57 2.56-.49 8.93-.2 11.91a121.82 121.82 0 01.53 12.45c-2.25 27.29 3.36 57.69 3.72 60.4.73 5.4-3.4 6.92-7.75 8.81-3.83 1.65-11.73 6.16-51.31 7.09-17.38.26-38.56-6.35-40.54-7.23-2.35-1-4.21-1.62-4.78-4.17 0 0 3.7-58.28 4-76.56l-.27-5.06a89.13 89.13 0 01-3 9.26c-2 .79-14.52 1.11-26.44-6.42C3.49 90.39-.3 87.39.32 84c.49-2.7 14.84-52.66 21.92-59.33C25.83 21.3 29 18.38 33.3 16 44.23 12.23 58.73 4.42 62.76.31" stroke-width=".5" stroke-miterlimit="10" fill="#333" stroke="#333"/>
      <path class="cls-2" d="M2 77.67c.65 3 4.25 5.73 6.59 7.42 11.4 7.41 24.11 8.45 26 7.68"/>
      <path class="cls-2" d="M135.62 92.37s21.19.93 31.65-11"/>
      <path class="cls-2" d="M135.09 90.78s24.5.13 31.39-11.66"/>
      <path class="cls-2" d="M1.31 80.58s8.35 12.85 32.58 14.57"/>
      <path class="cls-2" d="M32 163.5s34 25.69 103.88 2.91"/>
      <path class="cls-2" d="M31.77 162.17s34.44 24.9 104.38 2.12"/>
      <path class="cls-2" d="M59.06 4S81.84 18.59 106 3"/>
      <g>
        <path class="cls-2" d="M132.11 81.65s-7.67-54.5 7.66-64"/>
        <path d="M35.47 88.07s8.87-57.48-8.86-67.47" stroke-linecap="round" stroke-linejoin="round" fill="none" stroke="#000" stroke-width=".5"/>
      </g>
    </g>
  </g>
</svg>
