<svg xmlns="http://www.w3.org/2000/svg" viewBox="0 0 108.43 16.68">
  <title>arrow-black</title>
  <g id="Layer_2" data-name="Layer 2">
    <g id="OBJECTS">
      <g>
        <path d="M1.18,11c8.08.1,16.15-.16,24.22-.49s16.14-1,24.19-1.65S65.69,7.45,73.75,7c4-.27,8.06-.39,12.1-.42A112.75,112.75,0,0,1,98,7.07a1.18,1.18,0,0,1,1.06,1.29,1.2,1.2,0,0,1-.9,1,101.36,101.36,0,0,1-12,2.07c-2,.23-4,.43-6,.61s-4,.3-6.06.39c-8.09.45-16.19.55-24.29.5s-16.2-.14-24.29-.06S9.29,13,1.2,13.28A1.17,1.17,0,0,1,1.12,11Z"/>
        <path d="M96.27.32a17.87,17.87,0,0,0,5,3.18,16.2,16.2,0,0,0,2.79,1,24.11,24.11,0,0,0,2.89.55,1.77,1.77,0,0,1,1.51,2,1.89,1.89,0,0,1-.22.63l-.36.63A24.65,24.65,0,0,1,104,13.52a11.69,11.69,0,0,1-2.55,2,8.18,8.18,0,0,1-3.28,1.12,1.39,1.39,0,0,1-1.53-1.24,1.49,1.49,0,0,1,0-.52v0a9.8,9.8,0,0,1,1.46-3,15.57,15.57,0,0,1,2-2.28c1.43-1.41,3-2.67,4.6-4l.93,3.26c-1-.49-1.9-1.07-2.82-1.61l-2.72-1.67C98.3,4.51,96.6,3.3,94.84,2.14h0A1.17,1.17,0,0,1,94.5.52,1.18,1.18,0,0,1,96.12.19.93.93,0,0,1,96.27.32Z"/>
      </g>
    </g>
  </g>
</svg>
