<svg xmlns="http://www.w3.org/2000/svg" viewBox="0 0 170.27 190.42">
  <defs>
    <style>
      .cls-3{stroke-width:.5px;fill:none;stroke:#000;stroke-linecap:round;stroke-linejoin:round}
    </style>
  </defs>
  <g id="Layer_2" data-name="Layer 2">
    <g id="Objects">
      <path d="M62.42 1.09s19.37 34.54 43.68.38c0 0-25.27 9.78-43.68-.38z" fill="#333"/>
      <path d="M61.6.31s19 32.73 45.7.13c0 0 25.46 0 46.6 28.27l16 23.93-27.21 23.69-9.42-8.92s-5.09 35.15-1 52 6.88 55.26 6.37 62.9a235 235 0 01-55.52 7.9c-17.08.23-36.18-4.09-50.41-7.9 0 0 0-50.17 6.62-63.15 0 0 5.6-28.27-3.31-49.4l-7.64 9.16S17.92 70.7 13.56 66.23A165 165 0 00.35 54.94l23.78-31.8S30 12 61.6.31z" stroke-width=".5" stroke="#333" stroke-miterlimit="10" fill="#333"/>
      <path class="cls-3" d="M58.94 1.26S80.82 38.35 110.3.69"/>
      <path class="cls-3" d="M65 4.68s14.15 8.94 38.5 0"/>
      <path class="cls-3" d="M62.52 1.43s16.18 8.94 44 0"/>
      <path class="cls-3" d="M24.13 23.14S36.14 55.75 36 69.71"/>
      <path class="cls-3" d="M147.13 21.14S132.83 53.75 133 67.71"/>
      <path class="cls-3" d="M32.85 177s50.34 18.33 105.34 0"/>
      <path class="cls-3" d="M32.85 175s50.34 18.33 105.34 0"/>
    </g>
  </g>
</svg>
