<svg xmlns="http://www.w3.org/2000/svg" viewBox="0 0 51.23 20.06">
  <defs>
    <style>
      .cls-1 {
        fill: #333;
      }

      .cls-2 {
        fill: none;
        stroke: #000;
        stroke-miterlimit: 10;
        stroke-width: 0.5px;
      }
    </style>
  </defs>
  <title>reg-neck</title>
  <g id="Layer_2" data-name="Layer 2">
    <g id="Objects">
      <path class="cls-1" d="M.25,4A10.9,10.9,0,0,0,.49,6.53a13,13,0,0,0,4.1,6.74c5.16,4.95,12.75,5.84,15.55,6.17A35.09,35.09,0,0,0,33,18.59a27.91,27.91,0,0,0,10.84-5,22.3,22.3,0,0,0,5.9-6.7,20.71,20.71,0,0,0,1.29-2.71s-6-2.48-6.45-3.85a43.39,43.39,0,0,1-7.35,3A45.48,45.48,0,0,1,17.48,4.46,46.54,46.54,0,0,1,4.68.5Z"/>
      <path class="cls-2" d="M3.9,5.11s19.6,10.73,41.26,0"/>
      <path class="cls-2" d="M2.84,2.33S3.63,14.65,24.49,15c0,0,14.91.6,22.65-12.51"/>
      <path class="cls-2" d="M.25,4.2,4.68.5s10,4.79,19.85,4.61S44.6.29,44.6.29l6.32,4.22c-6.76,15.9-27.42,15.3-27.42,15.3C-.54,17.83.25,4,.25,4"/>
    </g>
  </g>
</svg>
