<svg xmlns="http://www.w3.org/2000/svg" viewBox="0 0 168.47 182.56">
  <defs>
    <style>
      .cls-2{stroke-miterlimit:10;stroke-width:.5px;fill:none;stroke:#000}
    </style>
  </defs>
  <g id="Layer_2" data-name="Layer 2">
    <g id="Objects">
      <path d="M62.77.31C58.73 4.42 44.23 12.23 33.3 16c-4.3 2.38-7.47 5.3-11.06 8.68C15.16 31.35.81 81.31.32 84c-.62 3.38 3.17 6.38 5.76 8.12 11.92 7.54 24.47 7.22 26.45 6.43a89 89 0 002.95-9.26l.27 5.06c-.27 18.28-4 76.56-4 76.56.57 2.55 2.43 3.13 4.78 4.17 2 .88 23.16 7.49 40.54 7.23 39.58-.93 47.48-5.44 51.31-7.09 4.35-1.89 8.48-3.41 7.75-8.81-.36-2.71-6-33.11-3.72-60.4a121.82 121.82 0 00-.53-12.45c-.29-3-1.37-9.35.2-11.91 1.33 4.29 4.83 15.09 4.83 15.09s18 2.91 31.26-10.33c0 0-7.95-42.12-16.69-56.16-9.24-19.34-43.68-23.31-49.05-29.9-2.43 2.06-22.31 9.1-39.66.23" stroke-width=".5" stroke-miterlimit="10" fill="#333" stroke="#333"/>
      <path class="cls-2" d="M2 77.67c.65 3 4.25 5.73 6.59 7.42 11.4 7.41 24.11 8.45 26 7.68"/>
      <path class="cls-2" d="M135.62 92.37s21.19.93 31.65-11"/>
      <path class="cls-2" d="M135.09 90.78s24.5.13 31.39-11.66"/>
      <path class="cls-2" d="M1.31 80.58s8.35 12.85 32.58 14.57"/>
      <path class="cls-2" d="M61.71 4.82s19.6 10.73 41.26 0"/>
      <path class="cls-2" d="M58.07 4.22s-.8 13.31 23.24 15.3c0 0 20.66.6 27.42-15.3"/>
      <path class="cls-2" d="M60.65 2s.79 12.31 21.66 12.71c0 0 14.9.6 22.65-12.52"/>
      <g>
        <path class="cls-2" d="M32.91 165s33.41 26.69 102.3 3"/>
        <path class="cls-2" d="M32.65 162.8s33.93 25.86 102.82 2.2"/>
      </g>
      <g>
        <path class="cls-2" d="M132.11 81.65s-7.67-54.43 7.66-63.89"/>
        <path d="M35.47 88.9s8.87-58.12-8.86-68.22" stroke-linecap="round" stroke-linejoin="round" fill="none" stroke="#000" stroke-width=".5"/>
      </g>
    </g>
  </g>
</svg>
