<svg xmlns="http://www.w3.org/2000/svg" viewBox="0 0 170.27 190.41">
  <defs>
    <style>
      .cls-2{stroke-width:.5px;fill:none;stroke:#000;stroke-linecap:round;stroke-linejoin:round}
    </style>
  </defs>
  <g id="Layer_2" data-name="Layer 2">
    <g id="Objects">
      <path d="M61.6.3a29.63 29.63 0 0021.25 9.18c6.78 0 12 .5 24.45-9 0 0 25.46 0 46.6 28.27l16 23.93-27.21 23.63-9.42-8.91s-5.09 35.14-1 51.95 6.88 55.26 6.37 62.9a235 235 0 01-55.52 7.9c-17.08.23-36.18-4.09-50.41-7.9 0 0 0-50.17 6.62-63.15 0 0 5.6-28.27-3.31-49.41l-7.64 9.17s-10.44-8.17-14.8-12.65A167.23 167.23 0 00.35 54.92l23.78-31.8S30 12 61.6.3z" stroke-width=".5" fill="#333" stroke="#333" stroke-miterlimit="10"/>
      <path class="cls-2" d="M59.61 1.07S81.2 26.45 110.3.68"/>
      <path class="cls-2" d="M24.13 23.12S36.14 55.74 36 69.69"/>
      <path class="cls-2" d="M147.13 21.12S132.83 53.74 133 67.69"/>
      <path class="cls-2" d="M32.85 177s50.34 18.34 105.34 0"/>
      <path class="cls-2" d="M32.85 175s50.34 18.34 105.34 0"/>
    </g>
  </g>
</svg>
